<mxfile host="app.diagrams.net" agent="Mozilla/5.0 (Macintosh; Intel Mac OS X 10_15_7) AppleWebKit/605.1.15 (KHTML, like Gecko) Version/17.6 Safari/605.1.15" version="28.0.7">
  <diagram name="Страница — 1" id="OtXQrdEuVqCXFL3E-VgK">
    <mxGraphModel dx="1442" dy="873" grid="0" gridSize="10" guides="1" tooltips="1" connect="1" arrows="1" fold="1" page="1" pageScale="1" pageWidth="827" pageHeight="1169" math="0" shadow="0">
      <root>
        <mxCell id="0" />
        <mxCell id="1" parent="0" />
        <mxCell id="Ftup2W-GejfR4x5cv8iV-6" style="edgeStyle=orthogonalEdgeStyle;rounded=0;orthogonalLoop=1;jettySize=auto;html=1;entryX=1;entryY=0.5;entryDx=0;entryDy=0;" edge="1" parent="1" source="Ftup2W-GejfR4x5cv8iV-2" target="Ftup2W-GejfR4x5cv8iV-5">
          <mxGeometry relative="1" as="geometry" />
        </mxCell>
        <mxCell id="Ftup2W-GejfR4x5cv8iV-7" value="нет" style="edgeLabel;html=1;align=center;verticalAlign=middle;resizable=0;points=[];" vertex="1" connectable="0" parent="Ftup2W-GejfR4x5cv8iV-6">
          <mxGeometry x="-0.24" y="-3" relative="1" as="geometry">
            <mxPoint as="offset" />
          </mxGeometry>
        </mxCell>
        <mxCell id="Ftup2W-GejfR4x5cv8iV-37" style="edgeStyle=orthogonalEdgeStyle;rounded=0;orthogonalLoop=1;jettySize=auto;html=1;entryX=0.5;entryY=0;entryDx=0;entryDy=0;" edge="1" parent="1" source="Ftup2W-GejfR4x5cv8iV-2" target="Ftup2W-GejfR4x5cv8iV-36">
          <mxGeometry relative="1" as="geometry" />
        </mxCell>
        <mxCell id="Ftup2W-GejfR4x5cv8iV-38" value="да" style="edgeLabel;html=1;align=center;verticalAlign=middle;resizable=0;points=[];" vertex="1" connectable="0" parent="Ftup2W-GejfR4x5cv8iV-37">
          <mxGeometry y="4" relative="1" as="geometry">
            <mxPoint x="-6" y="-5" as="offset" />
          </mxGeometry>
        </mxCell>
        <mxCell id="Ftup2W-GejfR4x5cv8iV-2" value="Длина &amp;gt; 8?" style="rhombus;whiteSpace=wrap;html=1;" vertex="1" parent="1">
          <mxGeometry x="300" y="140" width="80" height="80" as="geometry" />
        </mxCell>
        <mxCell id="Ftup2W-GejfR4x5cv8iV-4" style="edgeStyle=orthogonalEdgeStyle;rounded=0;orthogonalLoop=1;jettySize=auto;html=1;entryX=0.5;entryY=0;entryDx=0;entryDy=0;" edge="1" parent="1" source="Ftup2W-GejfR4x5cv8iV-3" target="Ftup2W-GejfR4x5cv8iV-2">
          <mxGeometry relative="1" as="geometry" />
        </mxCell>
        <mxCell id="Ftup2W-GejfR4x5cv8iV-3" value="Начало" style="rounded=1;whiteSpace=wrap;html=1;" vertex="1" parent="1">
          <mxGeometry x="280" y="40" width="120" height="60" as="geometry" />
        </mxCell>
        <mxCell id="Ftup2W-GejfR4x5cv8iV-5" value="False: длина должна быть &amp;gt; 8" style="rounded=1;whiteSpace=wrap;html=1;" vertex="1" parent="1">
          <mxGeometry x="130" y="150" width="120" height="60" as="geometry" />
        </mxCell>
        <mxCell id="Ftup2W-GejfR4x5cv8iV-12" style="edgeStyle=orthogonalEdgeStyle;rounded=0;orthogonalLoop=1;jettySize=auto;html=1;entryX=1;entryY=0.5;entryDx=0;entryDy=0;" edge="1" parent="1" source="Ftup2W-GejfR4x5cv8iV-9" target="Ftup2W-GejfR4x5cv8iV-11">
          <mxGeometry relative="1" as="geometry" />
        </mxCell>
        <mxCell id="Ftup2W-GejfR4x5cv8iV-13" value="нет" style="edgeLabel;html=1;align=center;verticalAlign=middle;resizable=0;points=[];" vertex="1" connectable="0" parent="Ftup2W-GejfR4x5cv8iV-12">
          <mxGeometry x="-0.2" y="-1" relative="1" as="geometry">
            <mxPoint as="offset" />
          </mxGeometry>
        </mxCell>
        <mxCell id="Ftup2W-GejfR4x5cv8iV-15" style="edgeStyle=orthogonalEdgeStyle;rounded=0;orthogonalLoop=1;jettySize=auto;html=1;entryX=0.5;entryY=0;entryDx=0;entryDy=0;" edge="1" parent="1" source="Ftup2W-GejfR4x5cv8iV-9" target="Ftup2W-GejfR4x5cv8iV-14">
          <mxGeometry relative="1" as="geometry" />
        </mxCell>
        <mxCell id="Ftup2W-GejfR4x5cv8iV-16" value="да" style="edgeLabel;html=1;align=center;verticalAlign=middle;resizable=0;points=[];" vertex="1" connectable="0" parent="Ftup2W-GejfR4x5cv8iV-15">
          <mxGeometry x="-0.15" y="1" relative="1" as="geometry">
            <mxPoint x="-1" as="offset" />
          </mxGeometry>
        </mxCell>
        <mxCell id="Ftup2W-GejfR4x5cv8iV-9" value="Есть заглавные буквы?" style="rhombus;whiteSpace=wrap;html=1;" vertex="1" parent="1">
          <mxGeometry x="300" y="382" width="80" height="80" as="geometry" />
        </mxCell>
        <mxCell id="Ftup2W-GejfR4x5cv8iV-11" value="False: должны быть заглавные буквы" style="rounded=1;whiteSpace=wrap;html=1;" vertex="1" parent="1">
          <mxGeometry x="130" y="392" width="120" height="60" as="geometry" />
        </mxCell>
        <mxCell id="Ftup2W-GejfR4x5cv8iV-18" style="edgeStyle=orthogonalEdgeStyle;rounded=0;orthogonalLoop=1;jettySize=auto;html=1;entryX=1;entryY=0.5;entryDx=0;entryDy=0;" edge="1" parent="1" source="Ftup2W-GejfR4x5cv8iV-14" target="Ftup2W-GejfR4x5cv8iV-17">
          <mxGeometry relative="1" as="geometry" />
        </mxCell>
        <mxCell id="Ftup2W-GejfR4x5cv8iV-19" value="нет" style="edgeLabel;html=1;align=center;verticalAlign=middle;resizable=0;points=[];" vertex="1" connectable="0" parent="Ftup2W-GejfR4x5cv8iV-18">
          <mxGeometry x="-0.16" relative="1" as="geometry">
            <mxPoint as="offset" />
          </mxGeometry>
        </mxCell>
        <mxCell id="Ftup2W-GejfR4x5cv8iV-21" value="да" style="edgeStyle=orthogonalEdgeStyle;rounded=0;orthogonalLoop=1;jettySize=auto;html=1;entryX=0.5;entryY=0;entryDx=0;entryDy=0;" edge="1" parent="1" source="Ftup2W-GejfR4x5cv8iV-14" target="Ftup2W-GejfR4x5cv8iV-20">
          <mxGeometry relative="1" as="geometry" />
        </mxCell>
        <mxCell id="Ftup2W-GejfR4x5cv8iV-14" value="Есть строчные буквы?" style="rhombus;whiteSpace=wrap;html=1;" vertex="1" parent="1">
          <mxGeometry x="300" y="502" width="80" height="80" as="geometry" />
        </mxCell>
        <mxCell id="Ftup2W-GejfR4x5cv8iV-17" value="False: должны быть строчные буквы" style="rounded=1;whiteSpace=wrap;html=1;" vertex="1" parent="1">
          <mxGeometry x="130" y="512" width="120" height="60" as="geometry" />
        </mxCell>
        <mxCell id="Ftup2W-GejfR4x5cv8iV-23" value="нет" style="edgeStyle=orthogonalEdgeStyle;rounded=0;orthogonalLoop=1;jettySize=auto;html=1;entryX=1;entryY=0.5;entryDx=0;entryDy=0;" edge="1" parent="1" source="Ftup2W-GejfR4x5cv8iV-20" target="Ftup2W-GejfR4x5cv8iV-22">
          <mxGeometry x="-0.2" relative="1" as="geometry">
            <mxPoint as="offset" />
          </mxGeometry>
        </mxCell>
        <mxCell id="Ftup2W-GejfR4x5cv8iV-25" style="edgeStyle=orthogonalEdgeStyle;rounded=0;orthogonalLoop=1;jettySize=auto;html=1;entryX=0.5;entryY=0;entryDx=0;entryDy=0;" edge="1" parent="1" source="Ftup2W-GejfR4x5cv8iV-20" target="Ftup2W-GejfR4x5cv8iV-24">
          <mxGeometry relative="1" as="geometry" />
        </mxCell>
        <mxCell id="Ftup2W-GejfR4x5cv8iV-26" value="да" style="edgeLabel;html=1;align=center;verticalAlign=middle;resizable=0;points=[];" vertex="1" connectable="0" parent="Ftup2W-GejfR4x5cv8iV-25">
          <mxGeometry x="-0.2308" y="-2" relative="1" as="geometry">
            <mxPoint y="1" as="offset" />
          </mxGeometry>
        </mxCell>
        <mxCell id="Ftup2W-GejfR4x5cv8iV-20" value="Есть спецсимвол?" style="rhombus;whiteSpace=wrap;html=1;" vertex="1" parent="1">
          <mxGeometry x="300" y="626.5" width="80" height="80" as="geometry" />
        </mxCell>
        <mxCell id="Ftup2W-GejfR4x5cv8iV-22" value="False: должны быть спецсимволы" style="rounded=1;whiteSpace=wrap;html=1;" vertex="1" parent="1">
          <mxGeometry x="130" y="636.5" width="120" height="60" as="geometry" />
        </mxCell>
        <mxCell id="Ftup2W-GejfR4x5cv8iV-24" value="True" style="rounded=1;whiteSpace=wrap;html=1;" vertex="1" parent="1">
          <mxGeometry x="280" y="752" width="120" height="60" as="geometry" />
        </mxCell>
        <mxCell id="Ftup2W-GejfR4x5cv8iV-27" value="&lt;font style=&quot;font-size: 14px;&quot;&gt;&lt;b&gt;1&lt;/b&gt;&lt;/font&gt;" style="text;html=1;align=center;verticalAlign=middle;whiteSpace=wrap;rounded=0;" vertex="1" parent="1">
          <mxGeometry x="160" width="60" height="30" as="geometry" />
        </mxCell>
        <mxCell id="Ftup2W-GejfR4x5cv8iV-28" value="&lt;font style=&quot;font-size: 14px;&quot;&gt;&lt;b&gt;2&lt;/b&gt;&lt;/font&gt;" style="text;html=1;align=center;verticalAlign=middle;whiteSpace=wrap;rounded=0;" vertex="1" parent="1">
          <mxGeometry x="310" width="60" height="30" as="geometry" />
        </mxCell>
        <mxCell id="Ftup2W-GejfR4x5cv8iV-29" value="&lt;span style=&quot;font-size: 14px;&quot;&gt;&lt;b&gt;A&lt;/b&gt;&lt;/span&gt;" style="text;html=1;align=center;verticalAlign=middle;whiteSpace=wrap;rounded=0;" vertex="1" parent="1">
          <mxGeometry x="53" y="55" width="60" height="30" as="geometry" />
        </mxCell>
        <mxCell id="Ftup2W-GejfR4x5cv8iV-30" value="&lt;span style=&quot;font-size: 14px;&quot;&gt;&lt;b&gt;B&lt;/b&gt;&lt;/span&gt;" style="text;html=1;align=center;verticalAlign=middle;whiteSpace=wrap;rounded=0;" vertex="1" parent="1">
          <mxGeometry x="53" y="165" width="60" height="30" as="geometry" />
        </mxCell>
        <mxCell id="Ftup2W-GejfR4x5cv8iV-31" value="&lt;font style=&quot;font-size: 14px;&quot;&gt;&lt;b&gt;C&lt;/b&gt;&lt;/font&gt;" style="text;html=1;align=center;verticalAlign=middle;whiteSpace=wrap;rounded=0;" vertex="1" parent="1">
          <mxGeometry x="53" y="285" width="60" height="30" as="geometry" />
        </mxCell>
        <mxCell id="Ftup2W-GejfR4x5cv8iV-32" value="&lt;font style=&quot;font-size: 14px;&quot;&gt;&lt;b&gt;D&lt;/b&gt;&lt;/font&gt;" style="text;html=1;align=center;verticalAlign=middle;whiteSpace=wrap;rounded=0;" vertex="1" parent="1">
          <mxGeometry x="53" y="405" width="60" height="30" as="geometry" />
        </mxCell>
        <mxCell id="Ftup2W-GejfR4x5cv8iV-33" value="&lt;font style=&quot;font-size: 14px;&quot;&gt;&lt;b&gt;E&lt;/b&gt;&lt;/font&gt;" style="text;html=1;align=center;verticalAlign=middle;whiteSpace=wrap;rounded=0;" vertex="1" parent="1">
          <mxGeometry x="53" y="529.5" width="60" height="30" as="geometry" />
        </mxCell>
        <mxCell id="Ftup2W-GejfR4x5cv8iV-34" value="&lt;font style=&quot;font-size: 14px;&quot;&gt;&lt;b&gt;F&lt;/b&gt;&lt;/font&gt;" style="text;html=1;align=center;verticalAlign=middle;whiteSpace=wrap;rounded=0;" vertex="1" parent="1">
          <mxGeometry x="53" y="645" width="60" height="30" as="geometry" />
        </mxCell>
        <mxCell id="Ftup2W-GejfR4x5cv8iV-40" value="нет" style="edgeStyle=orthogonalEdgeStyle;rounded=0;orthogonalLoop=1;jettySize=auto;html=1;entryX=1;entryY=0.5;entryDx=0;entryDy=0;" edge="1" parent="1" source="Ftup2W-GejfR4x5cv8iV-36" target="Ftup2W-GejfR4x5cv8iV-39">
          <mxGeometry relative="1" as="geometry" />
        </mxCell>
        <mxCell id="Ftup2W-GejfR4x5cv8iV-42" value="да" style="edgeStyle=orthogonalEdgeStyle;rounded=0;orthogonalLoop=1;jettySize=auto;html=1;entryX=0.5;entryY=0;entryDx=0;entryDy=0;" edge="1" parent="1" source="Ftup2W-GejfR4x5cv8iV-36" target="Ftup2W-GejfR4x5cv8iV-9">
          <mxGeometry relative="1" as="geometry" />
        </mxCell>
        <mxCell id="Ftup2W-GejfR4x5cv8iV-36" value="Есть цифры?" style="rhombus;whiteSpace=wrap;html=1;" vertex="1" parent="1">
          <mxGeometry x="300" y="260" width="80" height="80" as="geometry" />
        </mxCell>
        <mxCell id="Ftup2W-GejfR4x5cv8iV-39" value="False: должны быть цифры" style="rounded=1;whiteSpace=wrap;html=1;" vertex="1" parent="1">
          <mxGeometry x="130" y="270" width="120" height="60" as="geometry" />
        </mxCell>
        <mxCell id="Ftup2W-GejfR4x5cv8iV-43" value="&lt;span style=&quot;font-size: 14px;&quot;&gt;&lt;b&gt;G&lt;/b&gt;&lt;/span&gt;" style="text;html=1;align=center;verticalAlign=middle;whiteSpace=wrap;rounded=0;" vertex="1" parent="1">
          <mxGeometry x="53" y="767" width="60" height="30" as="geometry" />
        </mxCell>
      </root>
    </mxGraphModel>
  </diagram>
</mxfile>
